<?xml version="1.0" standalone="no"?>
<!DOCTYPE svg PUBLIC "-//W3C//DTD SVG 20010904//EN"
 "http://www.w3.org/TR/2001/REC-SVG-20010904/DTD/svg10.dtd">
<svg version="1.0" xmlns="http://www.w3.org/2000/svg"
 width="194.000000pt" height="194.000000pt" viewBox="0 0 194.000000 194.000000"
 preserveAspectRatio="xMidYMid meet">
<metadata>
Created by potrace 1.11, written by Peter Selinger 2001-2013
</metadata>
<g transform="translate(0.000000,194.000000) scale(0.100000,-0.100000)"
fill="#000000" stroke="none">
<path d="M781 1820 c-251 -53 -468 -220 -576 -445 -55 -112 -74 -184 -82 -305
-24 -382 223 -724 602 -832 104 -29 296 -31 395 -4 502 138 757 664 544 1124
-100 217 -279 372 -514 444 -74 23 -295 33 -369 18z m304 -49 c373 -77 635
-416 612 -791 -7 -117 -27 -191 -77 -295 -95 -196 -282 -349 -498 -407 -106
-28 -278 -28 -383 0 -370 98 -620 463 -571 832 23 168 86 306 196 426 186 205
451 291 721 235z"/>
<path d="M805 1345 c-115 -44 -166 -177 -109 -288 23 -43 93 -82 205 -112 124
-34 163 -58 167 -105 6 -59 -20 -87 -100 -106 -42 -10 -131 14 -194 52 l-59
36 -32 -38 c-18 -20 -33 -41 -33 -46 0 -5 21 -22 47 -38 152 -97 346 -98 446
-2 35 33 59 113 51 168 -14 93 -68 139 -214 180 -125 35 -164 56 -180 94 -41
100 112 152 255 86 32 -14 59 -26 60 -26 5 0 55 76 55 84 0 4 -30 21 -67 39
-59 27 -80 32 -163 34 -66 2 -107 -2 -135 -12z"/>
</g>
</svg>
